# xmcd
#
# Track frame offsets:
#	150
#	17155
#	38370
#	62237
#	79362
#	94917
#	113830
#	138702
#	161425
#	184880
#	203422
#	232785
#	243155
#	261392
#
# Disc length: 3713 seconds
# Revision: 1
# Processed by: cddbd v1.5.2PL0 Copyright (c) Steve Scherf et al.
# Submitted via: dBpowerAMP V12.0
#
DISCID=b50e7f0e
DTITLE=Dave Hole - Short Fuse Blues
DYEAR=1990
DGENRE=Blues
TTITLE0=Keep Your Motor Running
TTITLE1=The Bottle
TTITLE2=Short Fuse Blues
TTITLE3=Every Girl I See
TTITLE4=Something Fine
TTITLE5=Albatross
TTITLE6=Night Cat
TTITLE7=Tore Down
TTITLE8=The Sun Is Shining
TTITLE9=Business Man
TTITLE10=Take A Swing
TTITLE11=Dark Was The Night
TTITLE12=Truckload Of Lovin'
TTITLE13=Purple Haze
EXTD=
EXTT0=
EXTT1=
EXTT2=
EXTT3=
EXTT4=
EXTT5=
EXTT6=
EXTT7=
EXTT8=
EXTT9=
EXTT10=
EXTT11=
EXTT12=
EXTT13=
PLAYORDER=
